<?xml version="1.0" encoding="utf-8"?>
<!-- Generator: Adobe Illustrator 25.0.0, SVG Export Plug-In . SVG Version: 6.00 Build 0)  -->
<svg version="1.1" id="Layer_1" xmlns="http://www.w3.org/2000/svg" xmlns:xlink="http://www.w3.org/1999/xlink" x="0px" y="0px"
	 viewBox="0 0 122.6 80" style="enable-background:new 0 0 122.6 80;" xml:space="preserve">
<style type="text/css">
	.st0{fill-rule:evenodd;clip-rule:evenodd;fill:#3B6AA7;}
</style>
<path class="st0" d="M61.3,0c-22.6,0-41,18.3-41,41c0,18.2,11.7,33.5,28.1,38.9c2,0.4,2.8-0.9,2.8-2c0-1,0-3.5-0.1-6.9
	c-11.4,2.4-13.9-5.5-13.9-5.5c-1.9-4.8-4.6-6-4.6-6C29,57.1,33,57.1,33,57.1c4.1,0.3,6.2,4.2,6.2,4.2c3.6,6.2,9.6,4.5,11.9,3.4
	c0.4-2.6,1.5-4.5,2.6-5.5c-9.1-1.1-18.6-4.6-18.6-20.3c0-4.5,1.6-8.1,4.2-11c-0.4-1.1-1.9-5.2,0.4-10.8c0,0,3.4-1.1,11.3,4.2
	c3.3-0.9,6.7-1.4,10.2-1.4s7,0.5,10.2,1.4c7.8-5.3,11.2-4.2,11.2-4.2c2.2,5.7,0.9,9.9,0.4,10.8c2.6,2.8,4.2,6.5,4.2,11
	c0,15.7-9.6,19.2-18.7,20.2c1.5,1.3,2.8,3.8,2.8,7.6c0,5.5-0.1,10-0.1,11.2c0,1.1,0.8,2.3,2.8,2c16.4-5.4,28.1-20.8,28.1-38.8
	C102.3,18.4,83.9,0,61.3,0z"/>
</svg>
