<?xml version="1.0" encoding="utf-8"?>
<!-- Generator: Adobe Illustrator 25.0.0, SVG Export Plug-In . SVG Version: 6.00 Build 0)  -->
<svg version="1.1" id="Layer_1" xmlns="http://www.w3.org/2000/svg" xmlns:xlink="http://www.w3.org/1999/xlink" x="0px" y="0px"
	 viewBox="0 0 122.6 80" style="enable-background:new 0 0 122.6 80;" xml:space="preserve">
<style type="text/css">
	.st0{fill:#3B6AA7;}
</style>
<path class="st0" d="M27.9,0c0.2,0,0.5,0,0.7,0c21.9,0,43.8,0,65.7,0c0.1,0,0.2,0,0.3,0c0.1,0,0.2,0.1,0.4,0.1c1,0.1,1.9,0.4,2.7,1
	c1.5,0.9,2.5,2.1,3.1,3.8c0.2,0.6,0.3,1.2,0.4,1.8c0,0.2,0,0.5,0,0.7c0,21.9,0,43.8,0,65.7c0,0.1,0,0.2,0,0.3c0,0.1-0.1,0.2-0.1,0.4
	c-0.1,1-0.4,1.9-1,2.7C99.2,78,98,79,96.3,79.6c-0.6,0.2-1.2,0.3-1.8,0.4c-0.2,0-0.5,0-0.7,0c-21.9,0-43.8,0-65.7,0
	c-0.1,0-0.2,0-0.3,0c-0.1,0-0.2-0.1-0.4-0.1c-1-0.1-1.9-0.4-2.7-1c-1.5-0.9-2.5-2.1-3.1-3.8c-0.2-0.6-0.3-1.2-0.4-1.8
	c0-0.2,0-0.5,0-0.7c0-21.9,0-43.8,0-65.7c0-0.1,0-0.2,0-0.3c0-0.1,0.1-0.2,0.1-0.4c0.1-1,0.4-1.9,1-2.7C23.2,2,24.5,1,26.1,0.4
	C26.7,0.2,27.3,0.2,27.9,0z M52,50.3c0,4.4,0,8.7,0,13.1c0,1.9,0,3.8,0,5.7c0,1.3,0.8,2.1,2.1,2.1c3,0,6,0,9.1,0
	c0.4,0,0.7-0.1,1-0.3c0.7-0.5,1-1.1,1-2c0-6.5,0-12.9,0-19.4c0-1.8,0.4-3.6,1.1-5.2c1.2-2.6,3.1-4.1,6-4.2c1,0,1.9,0.1,2.8,0.4
	c1.6,0.6,2.7,1.8,3.4,3.4c0.7,1.7,0.9,3.4,0.9,5.2c0,6.7,0,13.3,0,20c0,1.1,0.9,2.1,2.1,2.1c3.1,0,6.2,0,9.4,0c0.3,0,0.7,0,1-0.2
	c0.8-0.4,1.1-1.1,1.1-2c0-6.1,0-12.3,0-18.4c0-3.1-0.1-6.2-0.6-9.3c-0.4-2-0.9-3.8-1.9-5.6c-1-1.9-2.3-3.5-4.1-4.7
	c-2-1.3-4.1-1.9-6.4-2.1c-2.5-0.3-5-0.1-7.4,0.5c-1.1,0.3-2.1,0.7-3,1.2c-1.6,0.9-2.8,2.1-3.9,3.5c-0.1,0.1-0.1,0.2-0.2,0.2
	s-0.1-0.2-0.1-0.3c0-0.9,0-1.7,0-2.6c0-1.1-0.9-2-1.9-2c-3.1,0-6.2,0-9.3,0c-0.6,0-1.2,0.3-1.5,0.8s-0.4,1-0.4,1.5
	C52,37.9,52,44.1,52,50.3z M32.8,50.3c0,6.2,0,12.4,0,18.6c0,1.4,0.8,2.3,2.2,2.3c3,0,5.9,0,8.9,0c1,0,1.7-0.5,2-1.4
	C46,69.4,46,69,46,68.6c0-12.2,0-24.4,0-36.6c0-0.2,0-0.4,0-0.6c-0.1-1.2-1-2-2.2-2c-2.9,0-5.9,0-8.8,0c-0.4,0-0.7,0.1-1,0.2
	c-0.8,0.4-1.2,1.2-1.2,2.1C32.8,37.9,32.8,44.1,32.8,50.3z M39.4,25.8c4.6,0.1,8.5-3.7,8.6-8.4c0-4.7-3.7-8.5-8.4-8.6
	c-4.6-0.1-8.5,3.7-8.6,8.4C30.9,22,34.6,25.8,39.4,25.8z"/>
</svg>
