<?xml version="1.0" encoding="utf-8"?>
<!-- Generator: Adobe Illustrator 25.0.0, SVG Export Plug-In . SVG Version: 6.00 Build 0)  -->
<svg version="1.1" id="Layer_1" xmlns="http://www.w3.org/2000/svg" xmlns:xlink="http://www.w3.org/1999/xlink" x="0px" y="0px"
	 viewBox="0 0 122.6 80" style="enable-background:new 0 0 122.6 80;" xml:space="preserve">
<style type="text/css">
	.st0{fill:#3B6AA7;}
</style>
<path class="st0" d="M122.5,13.6c-1.6,1.2-3,2.3-4.4,3.4c-2.6,2-5.2,4.1-7.9,6.2c-3.1,2.4-6.1,4.7-9.2,7.1
	c-3.5,2.7-6.9,5.4-10.3,8.1c-2.9,2.2-5.7,4.5-8.6,6.8c-3.7,2.9-7.5,5.8-11.2,8.7c-1.3,1.1-2.6,2.2-4.3,2.7c-3.6,1.2-7,0.9-10.1-1.3
	c-2.3-1.6-4.5-3.4-6.7-5.2c-3.6-2.8-7.2-5.6-10.8-8.5c-3.9-3.1-7.8-6.1-11.8-9.2c-2.8-2.2-5.7-4.4-8.5-6.6c-3.2-2.5-6.3-5-9.5-7.5
	c-2.9-2.2-5.8-4.5-8.7-6.7c-0.2-0.1-0.3-0.4-0.5-0.3c-0.1,0.2,0,0.5,0,0.7c0,7.1,0,14.2,0,21.3c0,13.8,0,27.5,0,41.3
	c0,1.5,0.6,2.8,1.7,3.9C2.9,79.6,4.3,80,5.9,80c8.4,0,16.8,0,25.3,0c16.5,0,33.1,0,49.6,0c11.3,0,22.5,0,33.8,0
	c1.4,0,2.8,0.2,4.2-0.2c2.1-0.6,3.8-2.7,3.8-5c0-20.1,0-40.3,0-60.4C122.5,14.2,122.5,13.9,122.5,13.6z M62.9,0C44.6,0,26.3,0,8.1,0
	C7.7,0,7.3,0,6.9,0.1C5.7,0.5,5,1.4,4.8,2.7c-0.2,1.1,0.1,2,1,2.8c2,1.5,3.9,3,5.9,4.6c3.2,2.5,6.4,5.1,9.7,7.6
	c2.8,2.2,5.6,4.4,8.5,6.6s5.7,4.5,8.6,6.7c3.6,2.8,7.3,5.6,10.9,8.5c1.9,1.4,3.7,2.9,5.5,4.3c1.9,1.5,3.8,3,5.7,4.5
	c1.5,1.2,2.9,1.2,4.1,0.2c1.3-1,2.5-2,3.8-3c2.8-2.2,5.7-4.4,8.5-6.6c2.3-1.8,4.6-3.6,6.9-5.4c3-2.4,6-4.7,9.1-7.1c3-2.3,6-4.7,9-7
	c3.5-2.7,6.9-5.4,10.4-8c2.5-2,5-3.9,7.5-5.9c0.8-0.6,1.1-1.5,1-2.5c-0.2-1.8-1.7-2.9-3.4-2.9C99.3,0,81.1,0,62.9,0z"/>
</svg>
